<svg width="504" height="338" viewBox="0 0 504 338" fill="none" xmlns="http://www.w3.org/2000/svg">
<g clip-path="url(#clip0_74_16487)">
<path d="M475 318.1C475 327.3 436.7 334.9 381.9 338.2C363.3 338.2 341.2 337.6 318.7 337.6C232.4 337.6 162.5 330.7 162.5 318.2C162.5 305.7 232.5 295.6 318.7 295.6C404.9 295.6 475 305.6 475 318.1Z" fill="#F0F3F6"/>
<path d="M337.4 334.6H297L284.2 318.6L239.1 251.3C239.1 251.3 254.1 195.4 256.5 192.4C258.9 189.4 271.5 175.6 275.7 175.6C279.9 175.6 309.3 199.6 309.3 199.6L329.1 231.4L337.4 334.6Z" fill="#B51D1D"/>
<path d="M177.7 95.9C177.7 95.9 170.3 95.2 163.9 103.3C157.5 111.5 160.8 127.1 173.4 133.5C186 140 196.7 131 196.7 131C196.7 131 196.1 108.7 195.8 106.6C195.5 104.5 177.7 95.9 177.7 95.9Z" fill="black"/>
<path d="M141.3 143.5C141.3 143.5 127.2 141.2 103.6 168C80 194.8 59 214.3 59 214.3L99.8 225.9L152.9 175L141.3 143.5Z" fill="black"/>
<path d="M202.4 113.2C202.4 113.2 206 130 209.4 131.1C212.8 132.2 222.9 131.8 222.9 131.8L218.1 161.8C218.1 161.8 195.2 172 175.9 163.4L163.6 138C163.6 138 177.3 135 179.6 133.6C181.9 132.2 186.4 103.6 186.4 103.6L202.4 113.2Z" fill="#EDECEB"/>
<path d="M185.8 107.1C185.8 107.3 185.7 107.5 185.7 107.6C186.3 111.2 190.8 131.3 207.7 129.4C205.4 125.6 203.3 116.8 202.6 114.1L191.8 107.8L185.8 107.1Z" fill="#CCCCCC"/>
<path d="M166.4 223.7C166.4 223.7 109.9 253.3 135.2 316.6C144.4 336.6 156.8 337.4 163.2 337.4C169.6 337.4 227.7 242.5 227.7 242.5L224.4 225.5L166.4 223.7Z" fill="black"/>
<path d="M224.4 225.5C224.4 225.5 282.4 250.7 283.3 292.2C285.7 317.4 271 337.3 213.9 337.3C156.8 337.3 155 337.3 155 337.3L150.2 285.6L197.1 224.3L224.4 225.5Z" fill="#C42622"/>
<path d="M165.6 137.4C167.1 142.2 182.8 161.3 200.8 159C216.7 157 220.9 144.4 219.8 131.8C228.8 131.7 249.8 132.9 249.8 132.9L224.4 225.5C224.4 225.5 197.4 237.2 166.4 223.7L142.4 181.5L141.1 143.6C141.1 143.5 157.1 139.5 165.6 137.4Z" fill="black"/>
<path d="M249.5 132.8C249.5 132.8 263.7 130.9 286.4 158.5C309.2 186.1 319.1 197.1 319.1 197.1L297.2 226.4L237 164L249.5 132.8Z" fill="black"/>
<path d="M164.6 224.9L152.6 200.1C152.6 200.1 158.6 188.6 165.4 180.5C191.2 149.7 219.1 131.7 219.1 131.7C219.1 131.7 247.3 131.4 253.1 132.7C258.9 133.9 269.3 139.9 277.5 148.1C285.7 156.3 309.2 176.6 313.4 180.4C317.6 184.2 334 199.2 344.2 242.4C354.4 285.6 381.4 337.3 381.4 337.3H356.5C356.5 337.3 331 319.5 323 288.2C315 257 314.6 226.2 311.2 217.3C307.4 207.4 309.7 201.1 300.6 199.7C281.3 196.7 232.8 273.3 221.1 283.2C209.4 293.1 215.1 246 215.1 246L164.6 224.9Z" fill="#E94335"/>
<path d="M315.8 214.5C315.8 214.5 321.8 258.3 323 264.6C325.4 276.6 333.8 297.8 333.8 297.8L353.4 315.4C353.4 315.4 336.6 271.3 334.6 261.3C332.6 251.3 325.2 207 322.2 202C319.2 197 315.8 214.5 315.8 214.5Z" fill="#C42622"/>
<path d="M292.4 197.6C292.4 197.6 287.6 199.3 279.6 207.2C271.6 215.1 254.1 235.6 247 246.1C237.8 243.4 237.8 243.4 237.8 243.4C237.8 243.4 258.1 216.2 274.3 201.1C290.5 186 298.5 186.7 303.4 187.4C308.5 188.1 292.4 197.6 292.4 197.6Z" fill="#C42622"/>
<path d="M199.4 239.4L215.1 245.9C215.1 245.9 214.9 247.3 214.7 249.5L246.2 251.8C248 249.4 249.9 246.9 251.9 244.4C249.1 242.9 231.5 233.3 224.2 231.8C216.3 230.2 211.9 231.7 211.9 231.7L220.9 217.3L199.4 239.4Z" fill="#C42622"/>
<path d="M219.1 131.7C219.1 131.7 191.2 149.7 165.4 180.5C158.6 188.6 152.6 200.1 152.6 200.1L159.7 214.7C163 209.7 174.2 193.6 192.9 172.5C213.1 149.6 234.5 134.8 238.9 131.8C229.5 131.6 219.1 131.7 219.1 131.7Z" fill="#C42622"/>
<path d="M205.8 85.0999C205.8 85.0999 210.7 90.9999 211.6 100.5C212.5 110 213.7 123 203.4 121.9C190.7 120.6 184.1 105.5 183.1 101.7C182.1 97.8999 185.9 86.0999 190.6 82.9999C195.5 79.9999 203.9 82.4999 205.8 85.0999Z" fill="#EDECEB"/>
<path d="M206.037 97.4696C206.305 97.4031 206.415 96.9147 206.282 96.3787C206.149 95.8426 205.824 95.4619 205.556 95.5284C205.288 95.5948 205.179 96.0832 205.311 96.6193C205.444 97.1553 205.769 97.536 206.037 97.4696Z" fill="#E94335"/>
<path d="M207.2 100.6C207.2 100.6 206.4 102.9 207.3 105C208.2 107.1 209.8 107.8 207.5 109.1" stroke="black" stroke-width="0.5415" stroke-miterlimit="10" stroke-linecap="round" stroke-linejoin="round"/>
<path d="M207.3 102.4C207.3 102.4 209.9 103.7 211.6 101.6" stroke="black" stroke-width="0.5415" stroke-miterlimit="10" stroke-linecap="round" stroke-linejoin="round"/>
<path d="M196.6 103.2C196.6 103.2 201.2 105.9 204.4 103" stroke="black" stroke-width="0.5415" stroke-miterlimit="10" stroke-linecap="round" stroke-linejoin="round"/>
<path d="M204.9 112C204.9 112 205.3 115.5 207.6 115.4C209.9 115.3 210 111.9 210 111.9C210 111.9 209.6 113.7 207.9 113.7C206.2 113.7 204.9 112 204.9 112Z" fill="#E94335"/>
<path d="M204.2 111.4C204.2 111.4 208.8 109.5 210.4 111C209.1 112 207.9 112.3 206.6 112.2C205.4 112 204.2 111.4 204.2 111.4Z" fill="#E94335"/>
<path d="M203.7 111.2C203.7 111.2 207.5 113.8 211 110.7" stroke="black" stroke-width="0.5415" stroke-miterlimit="10" stroke-linecap="round" stroke-linejoin="round"/>
<path d="M204.9 111.8C204.9 111.8 205.6 113.9 207.7 113.8C209.8 113.7 210 111.5 210 111.5" stroke="black" stroke-width="0.5415" stroke-miterlimit="10" stroke-linecap="round" stroke-linejoin="round"/>
<path d="M188 102.4C188 102.4 203.6 97.3 201.7 85.9C207.6 90.5 209.4 91.3 209.4 91.3C209.4 91.3 205.5 76.7 189.3 77.9C173.3 79 166.6 94.4999 173.4 105.2C180.2 115.9 186.1 103.1 188 102.4Z" fill="black"/>
<path d="M188.8 102.9C188.8 102.9 187.7 95.7999 183 97.6999C177.9 99.7999 183 109.4 186 108" fill="#EDECEB"/>
<path d="M187.4 103.1C187.4 103.1 186.2 99.5 183.9 99" stroke="black" stroke-width="0.5415" stroke-miterlimit="10" stroke-linecap="round" stroke-linejoin="round"/>
<path d="M203.1 99.8999C203.1 99.8999 204 99.9999 204.3 99.1999C204.6 98.3999 198.9 95.3999 195.3 96.5999C191.7 97.7999 197.6 96.3999 203.1 99.8999Z" fill="black"/>
<path d="M208.4 97.0999C208.4 97.0999 207.3 98.0999 207.6 98.6999C207.9 99.1999 208.6 99.3999 209.3 98.4999C210 97.5999 211 96.4999 211 96.4999C211 96.4999 211.1 95.8999 210.7 95.5999C210.3 95.2999 208.4 97.0999 208.4 97.0999Z" fill="black"/>
<path d="M178.2 243.3C178.2 243.3 201.2 233.8 220.6 234.2C240 234.6 326.5 282.6 348.1 297.6C369.7 312.6 381.9 338.1 381.9 338.1H149.2C149.2 338.1 154 255.4 178.2 243.3Z" fill="#E94335"/>
<path d="M213.3 300C205.2 291.9 200.7 264 201.6 247.7C198 278.3 163.8 300 163.8 300C163.8 300 158.9 304.5 152.1 310.9C149.9 326.3 149.2 338.1 149.2 338.1H283.9C264.7 328.7 219.6 306.4 213.3 300Z" fill="#C42622"/>
<path d="M363 9.5L369.7 16.8L366.3 19.9L359.7 13L363 9.5Z" fill="#7B4921"/>
<path d="M357 14.6C361.032 14.6 364.3 11.3317 364.3 7.3C364.3 3.26832 361.032 0 357 0C352.968 0 349.7 3.26832 349.7 7.3C349.7 11.3317 352.968 14.6 357 14.6Z" fill="#CE8441"/>
<path d="M346.2 28.2001L352.9 35.5001L349.5 38.7001L342.9 31.8001L346.2 28.2001Z" fill="#7B4921"/>
<path d="M340.1 33.4001C344.132 33.4001 347.4 30.1317 347.4 26.1C347.4 22.0684 344.132 18.8 340.1 18.8C336.068 18.8 332.8 22.0684 332.8 26.1C332.8 30.1317 336.068 33.4001 340.1 33.4001Z" fill="#CE8441"/>
<path d="M329.9 44.9L336.6 52.2L333.3 55.3L326.7 48.4L329.9 44.9Z" fill="#7B4921"/>
<path d="M323.9 50C327.932 50 331.2 46.7317 331.2 42.7C331.2 38.6683 327.932 35.4 323.9 35.4C319.868 35.4 316.6 38.6683 316.6 42.7C316.6 46.7317 319.868 50 323.9 50Z" fill="#CE8441"/>
<path d="M303.7 75.8L310.4 83.1L307 86.2L300.5 79.3L303.7 75.8Z" fill="#7B4921"/>
<path d="M297.7 80.9C301.732 80.9 305 77.6317 305 73.6C305 69.5684 301.732 66.3 297.7 66.3C293.668 66.3 290.4 69.5684 290.4 73.6C290.4 77.6317 293.668 80.9 297.7 80.9Z" fill="#CE8441"/>
<path d="M284.9 96.5L291.7 103.8L288.3 106.9L281.7 100.1L284.9 96.5Z" fill="#7B4921"/>
<path d="M278.9 101.6C282.932 101.6 286.2 98.3317 286.2 94.3C286.2 90.2683 282.932 87 278.9 87C274.868 87 271.6 90.2683 271.6 94.3C271.6 98.3317 274.868 101.6 278.9 101.6Z" fill="#CE8441"/>
<path d="M272.2 109.6L278.3 115.8L276.9 117.2L270.9 111.2L272.2 109.6Z" fill="#7B4921"/>
<path d="M269.7 111.8C271.357 111.8 272.7 110.457 272.7 108.8C272.7 107.143 271.357 105.8 269.7 105.8C268.043 105.8 266.7 107.143 266.7 108.8C266.7 110.457 268.043 111.8 269.7 111.8Z" fill="#CE8441"/>
<path d="M263.4 118.5L269.4 124.7L268 126L262 120L263.4 118.5Z" fill="#7B4921"/>
<path d="M260.9 120.7C262.557 120.7 263.9 119.357 263.9 117.7C263.9 116.043 262.557 114.7 260.9 114.7C259.243 114.7 257.9 116.043 257.9 117.7C257.9 119.357 259.243 120.7 260.9 120.7Z" fill="#CE8441"/>
<path d="M255.2 126.2L261.3 132.4L259.9 133.7L253.9 127.7L255.2 126.2Z" fill="#7B4921"/>
<path d="M252.7 128.4C254.357 128.4 255.7 127.057 255.7 125.4C255.7 123.743 254.357 122.4 252.7 122.4C251.043 122.4 249.7 123.743 249.7 125.4C249.7 127.057 251.043 128.4 252.7 128.4Z" fill="#CE8441"/>
<path d="M249 134.5L255 140.7L253.7 142.1L247.7 136L249 134.5Z" fill="#7B4921"/>
<path d="M246.5 136.7C248.157 136.7 249.5 135.357 249.5 133.7C249.5 132.043 248.157 130.7 246.5 130.7C244.843 130.7 243.5 132.043 243.5 133.7C243.5 135.357 244.843 136.7 246.5 136.7Z" fill="#CE8441"/>
<path d="M236.8 146.7L242.8 152.9L241.4 154.2L235.4 148.2L236.8 146.7Z" fill="#7B4921"/>
<path d="M234.3 148.8C235.957 148.8 237.3 147.457 237.3 145.8C237.3 144.143 235.957 142.8 234.3 142.8C232.643 142.8 231.3 144.143 231.3 145.8C231.3 147.457 232.643 148.8 234.3 148.8Z" fill="#CE8441"/>
<path d="M230 154L236.1 160.1L234.7 161.5L228.7 155.5L230 154Z" fill="#7B4921"/>
<path d="M227.5 156.1C229.157 156.1 230.5 154.757 230.5 153.1C230.5 151.443 229.157 150.1 227.5 150.1C225.843 150.1 224.5 151.443 224.5 153.1C224.5 154.757 225.843 156.1 227.5 156.1Z" fill="#CE8441"/>
<path d="M224.2 160.4L230.3 166.6L228.9 167.9L222.9 161.9L224.2 160.4Z" fill="#7B4921"/>
<path d="M221.7 162.6C223.357 162.6 224.7 161.257 224.7 159.6C224.7 157.943 223.357 156.6 221.7 156.6C220.043 156.6 218.7 157.943 218.7 159.6C218.7 161.257 220.043 162.6 221.7 162.6Z" fill="#CE8441"/>
<path d="M218.2 166.3L224.2 172.5L222.9 173.8L216.9 167.8L218.2 166.3Z" fill="#7B4921"/>
<path d="M215.7 168.4C217.357 168.4 218.7 167.057 218.7 165.4C218.7 163.743 217.357 162.4 215.7 162.4C214.043 162.4 212.7 163.743 212.7 165.4C212.7 167.057 214.043 168.4 215.7 168.4Z" fill="#CE8441"/>
<path d="M212.4 172.9L218.4 179.1L217.1 180.4L211.1 174.4L212.4 172.9Z" fill="#7B4921"/>
<path d="M209.9 175C211.557 175 212.9 173.657 212.9 172C212.9 170.343 211.557 169 209.9 169C208.243 169 206.9 170.343 206.9 172C206.9 173.657 208.243 175 209.9 175Z" fill="#CE8441"/>
<path d="M206.7 178.6L212.8 184.8L211.4 186.1L205.4 180.1L206.7 178.6Z" fill="#7B4921"/>
<path d="M204.2 180.7C205.857 180.7 207.2 179.357 207.2 177.7C207.2 176.043 205.857 174.7 204.2 174.7C202.543 174.7 201.2 176.043 201.2 177.7C201.2 179.357 202.543 180.7 204.2 180.7Z" fill="#CE8441"/>
<path d="M199.1 187.3L205.2 193.5L203.8 194.9L197.8 188.9L199.1 187.3Z" fill="#7B4921"/>
<path d="M196.6 189.5C198.257 189.5 199.6 188.157 199.6 186.5C199.6 184.843 198.257 183.5 196.6 183.5C194.943 183.5 193.6 184.843 193.6 186.5C193.6 188.157 194.943 189.5 196.6 189.5Z" fill="#CE8441"/>
<path d="M190.2 195.8L196.3 202L194.9 203.3L188.9 197.3L190.2 195.8Z" fill="#7B4921"/>
<path d="M187.7 198C189.357 198 190.7 196.657 190.7 195C190.7 193.343 189.357 192 187.7 192C186.043 192 184.7 193.343 184.7 195C184.7 196.657 186.043 198 187.7 198Z" fill="#CE8441"/>
<path d="M185.8 201.6L191.8 207.8L190.4 209.1L184.5 203.1L185.8 201.6Z" fill="#7B4921"/>
<path d="M183.3 203.7C184.957 203.7 186.3 202.357 186.3 200.7C186.3 199.043 184.957 197.7 183.3 197.7C181.643 197.7 180.3 199.043 180.3 200.7C180.3 202.357 181.643 203.7 183.3 203.7Z" fill="#CE8441"/>
<path d="M171.1 231.2C171.1 231.2 157.4 241.2 133.9 236.3C110.4 231.4 87.4 235.5 78 249C68.6 262.5 69.4 281.8 90.9 301.9C112.4 322 152.1 271.3 152.1 271.3L171.1 231.2Z" fill="#995F33"/>
<path d="M374.5 8.90002L396.5 30L177.4 265.9C177.4 265.9 176.2 267.4 176.5 271.1C176.8 274.8 181.9 296.8 176.7 314C171.5 331.2 158.1 340.5 138.8 337.1C119.5 333.7 102.3 315.1 99 311.5C95.7 308 67.7 280.3 81.3 257.1C94.9 233.9 126.5 237.8 137.8 240.9C145.2 242.6 156.2 245.8 166.3 234.3C177.2 221.7 374.5 8.90002 374.5 8.90002Z" fill="#FFC48A"/>
<path d="M327.5 59.5L349.7 80.5L351.1 79.1L328.8 58.3L327.5 59.5Z" fill="#FFAE55"/>
<path d="M318.3 60.3L345.7 86.3001L344.1 88L316.6 62.3L318.3 60.3Z" fill="#FFAE55"/>
<path d="M154.2 244.2L153.4 245.3L154.9 245.7C154.9 245.7 153.4 248.4 153.4 249.9C151.8 250.6 150.9 250.4 150.9 250.4L150.7 252.8C150.7 252.8 148.8 253.4 147.7 254.4C146.5 255.4 144.1 257.6 142.1 257.9C142.1 257.9 148 261.5 152 259C152.2 259.4 151.4 260.3 150.6 260.5C149.8 260.7 148.4 261.8 148.7 264.1C150.3 263.5 152.7 264.8 153.8 264.5C154.4 265.4 155.6 265.8 155.6 265.8C155.6 265.8 155.8 266.8 156.8 267.4C156.6 268.4 156.9 269.4 157.4 270.1C157.9 270.8 157.6 272.1 157.2 272.6C158.9 273 160 272 160.6 271.1C161.2 270.2 162 269.2 162 269.2C162 269.2 159.2 274.3 163.6 279.3C164.6 276.1 164.3 276.1 165.4 274.9C166.6 273.7 168.1 273.5 168.6 270.1C170.7 269.7 170.7 269.7 170.7 269.7V267C170.7 267 173.2 267.5 175.5 265.9C175.5 267.9 175.4 267.5 175.4 267.5C175.4 267.5 173.3 270.6 174.3 277.3C175.3 284 178.8 299.5 173.6 312.4C168.4 325.3 168.5 324.4 166.4 326C164.3 327.6 160.3 325.6 159 327.2C157.7 328.8 158 331.9 156.3 332.7C154.6 333.5 150.3 334.7 148.2 334.1C146.1 333.6 146.4 331.6 145.1 331.5C143.8 331.4 139.2 332.9 135.2 332.9C131.2 332.9 119.6 326.4 117.3 321.9C115.1 317.5 114.8 304.9 114.8 304.9C114.8 304.9 105.9 306.2 101.8 304.5C97.6 302.8 85.4 286.2 83.8 278C82.2 269.8 82.8 262.1 85.9 260.1C89 258.1 93.3 257.4 93.3 257.4C93.3 257.4 91.3 249.7 97.9 246.7C104.4 243.7 114.7 241.4 125 241.7C135.3 242 144.2 245 147.7 244.9C151 244.8 154.2 244.2 154.2 244.2Z" fill="#CE8441"/>
<path d="M329 81.3C329 81.3 328.3 83 329.9 84.8C331.5 86.7 332.3 88.8 331.3 90.2C332.6 91.3 333.1 93 332.4 94.4C331.7 95.7 190.5 239.9 190.5 239.9C190.5 239.9 189.5 239.1 190.1 237.8C190.7 236.6 191.6 233.7 191.4 232.1C191.3 230.5 191.2 229.1 191.2 229.1C191.2 229.1 187 228.8 185.6 229.3C184.2 229.7 182.2 230.6 181.7 230.7C181.2 230.8 179.8 230 179.8 230C179.8 230 310.8 83.3 312.5 81.6C314.3 79.8 316.9 77.4 320.3 79.2C322 78.6 323.4 78.8 324.5 79.7C325.6 80.6 327.8 81.8 329 81.3Z" fill="#CE8441"/>
<path d="M312 77.5L333.4 96.6L332.7 97.4L311.2 78.3L312 77.5Z" fill="#FFAE55"/>
<path d="M301.7 88.8L323.1 107.9L322.4 108.7L300.9 89.6L301.7 88.8Z" fill="#FFAE55"/>
<path d="M292 98.8L313.5 117.9L312.7 118.7L291.3 99.6L292 98.8Z" fill="#FFAE55"/>
<path d="M283.4 108.3L304.9 127.4L304.1 128.2L282.7 109.1L283.4 108.3Z" fill="#FFAE55"/>
<path d="M274.5 117.9L295.9 137.1L295.2 137.9L273.8 118.8L274.5 117.9Z" fill="#FFAE55"/>
<path d="M266 126.9L287.5 146L286.7 146.8L265.3 127.7L266 126.9Z" fill="#FFAE55"/>
<path d="M259 134.8L280.4 153.9L279.7 154.8L258.2 135.6L259 134.8Z" fill="#FFAE55"/>
<path d="M252.2 142.1L273.6 161.2L272.9 162L251.5 142.9L252.2 142.1Z" fill="#FFAE55"/>
<path d="M239 156.5L260.5 175.6L259.7 176.4L238.3 157.3L239 156.5Z" fill="#FFAE55"/>
<path d="M232.3 163.3L253.7 182.4L253 183.2L231.6 164.1L232.3 163.3Z" fill="#FFAE55"/>
<path d="M226.6 170L248.1 189.1L247.3 189.9L225.9 170.8L226.6 170Z" fill="#FFAE55"/>
<path d="M220.4 176.2L241.8 195.3L241.1 196.2L219.6 177.1L220.4 176.2Z" fill="#FFAE55"/>
<path d="M215.7 181.5L237.2 200.6L236.4 201.4L215 182.3L215.7 181.5Z" fill="#FFAE55"/>
<path d="M211.4 186.3L232.9 205.4L232.1 206.2L210.7 187.1L211.4 186.3Z" fill="#FFAE55"/>
<path d="M202 196.3L223.4 215.4L222.7 216.2L201.3 197.1L202 196.3Z" fill="#FFAE55"/>
<path d="M197.8 200.8L219.3 219.9L218.5 220.7L197.1 201.6L197.8 200.8Z" fill="#FFAE55"/>
<path d="M194.1 204.8L215.5 223.9L214.8 224.7L193.4 205.6L194.1 204.8Z" fill="#FFAE55"/>
<path d="M190.8 208.5L212.2 227.6L211.5 228.4L190 209.3L190.8 208.5Z" fill="#FFAE55"/>
<path d="M183.4 216.3L204.8 235.4L204.1 236.2L182.7 217.1L183.4 216.3Z" fill="#FFAE55"/>
<path d="M177.5 222.7L198.9 241.8L198.2 242.6L176.7 223.5L177.5 222.7Z" fill="#FFAE55"/>
<path d="M172.7 228L194.2 247.1L193.4 247.9L172 228.8L172.7 228Z" fill="#FFAE55"/>
<path d="M370.4 21.8L339.7 55.6C339.7 55.6 341.9 59.2 341.6 62.8L346.3 67.6C346.3 67.6 350.9 66.7 355 67.3L384.4 35.2C384.4 35.2 383.9 29.6 385.3 27L380 21.4C380 21.5 374.3 22.2 370.4 21.8Z" fill="#CE8441"/>
<path d="M118.4 283.4L117.8 284.6L136.5 301.4L137.5 300.6L118.4 283.4Z" fill="#B27039"/>
<path d="M137.5 300.6L145.2 292.6L126.1 274.9L118.4 283.4L137.5 300.6Z" fill="#FFAE55"/>
<path d="M346.2 59.8L127.7 293.3L104.4 317.1" stroke="white" stroke-width="0.3831" stroke-miterlimit="2.6131" stroke-linecap="round" stroke-linejoin="round"/>
<path d="M371.7 34L330 73.7L126.3 292.3L103.4 316.2" stroke="white" stroke-width="0.3831" stroke-miterlimit="2.6131" stroke-linecap="round" stroke-linejoin="round"/>
<path d="M368.5 15L328.8 72.1L125.1 291.1L102.3 315.2" stroke="white" stroke-width="0.3831" stroke-miterlimit="2.6131" stroke-linecap="round" stroke-linejoin="round"/>
<path d="M335.6 50.6L327.1 71.1L123.9 289.8L101.5 314.4" stroke="white" stroke-width="0.3831" stroke-miterlimit="2.6131" stroke-linecap="round" stroke-linejoin="round"/>
<path d="M308.1 80.1L305.3 91.8L122.7 288.6L100.5 313.4" stroke="white" stroke-width="0.3831" stroke-miterlimit="2.6131" stroke-linecap="round" stroke-linejoin="round"/>
<path d="M289.1 100.8L285 110.1L121.3 287.6L99.5 312.5" stroke="white" stroke-width="0.3831" stroke-miterlimit="2.6131" stroke-linecap="round" stroke-linejoin="round"/>
<path d="M375.2 29.4L371.7 34C371.7 34 372.6 37.3 375.9 37.9L380.4 32.6L375.2 29.4Z" fill="#7B4921"/>
<path d="M380 35.7C383.755 35.7 386.8 32.6555 386.8 28.9C386.8 25.1444 383.755 22.1 380 22.1C376.244 22.1 373.2 25.1444 373.2 28.9C373.2 32.6555 376.244 35.7 380 35.7Z" fill="#B26A2F"/>
<path d="M349.7 55.2001L346.2 59.8001C346.2 59.8001 347.1 63.1001 350.4 63.7001L354.9 58.4001L349.7 55.2001Z" fill="#7B4921"/>
<path d="M354.5 61.4001C358.255 61.4001 361.3 58.3556 361.3 54.6C361.3 50.8445 358.255 47.8 354.5 47.8C350.744 47.8 347.7 50.8445 347.7 54.6C347.7 58.3556 350.744 61.4001 354.5 61.4001Z" fill="#B26A2F"/>
<path d="M151.2 230.3C151.2 230.3 155 233.5 161.5 234.2C168 234.8 176.3 235.7 176.6 235.8C176.8 235.9 179.3 236.3 179.7 235.4C180.2 234.5 179.8 233.6 178.4 233C177 232.4 177 232.5 177 232.5L171.6 230.6L174.4 230.2L180.3 231C180.3 231 181.3 233.4 182 233.9C182.4 234.2 183 234.2 183.4 233.9C184 233.4 183.4 231.7 183.4 231.1C183.4 231.1 184.6 229.5 184.7 227.9C184.8 226.3 185.2 225 184.4 224.6C184.4 223.2 184.3 222.1 183.3 221.3C182.3 220.5 179.7 219.2 178 218.4C176.3 217.6 174.7 216.2 173.7 216.2C172.7 216.2 165.5 217.1 162.2 217.1C158.9 217.1 151.8 217.9 151.8 217.9" fill="#EDECEB"/>
<path d="M176.5 235.8C176.5 235.8 179.1 236.2 179.2 234.1" stroke="black" stroke-width="0.2941" stroke-miterlimit="10" stroke-linecap="round"/>
<path d="M174.6 221.3C174.6 221.3 176.2 222.1 179.1 222.9C182 223.7 184.3 224.5 184.3 224.5" stroke="black" stroke-width="0.2941" stroke-miterlimit="10" stroke-linecap="round"/>
<path d="M172.7 225.4C172.7 225.4 177.6 226.5 179.7 227C181.8 227.5 182.5 228.1 182.8 228.6C183.1 229.1 183.3 231 183.3 231" stroke="black" stroke-width="0.2941" stroke-miterlimit="10" stroke-linecap="round"/>
<path d="M151.8 217.9C151.8 217.9 120.7 212.9 111.4 211.5C102.1 210.1 84.4 206.7 73.4 208C61 209.5 50.9 217.9 55.8 232.6C60 245.4 82.3 244.4 99.5 240.1C116.7 235.8 146.9 231 151.2 230.2C155.3 229.5 156.8 220.5 151.8 217.9Z" fill="#EDECEB"/>
<path d="M320.1 125.8C320.1 125.8 316.2 123 315.9 118.6C315.7 114.2 316.4 108.4 316.4 108.4L314.1 104C314.1 104 310.7 99.8 311.6 98.7C313.1 96.9 316.6 102 316.6 102L317.4 103.2L317.1 100.8L314.6 98.5C314.6 98.5 310.1 97.5 310.7 95.1C310.9 94.2 311.1 94 311.1 94C311.1 94 310.2 93.2 310.3 92.1C310.4 91 311.3 91 311.3 91C311.3 91 311.3 89.3 313.8 89.6C316.3 89.9 317.8 90.2 318.1 90.4C318.4 90.5 323.5 93.2 323.9 93.7C324.4 94.2 328.8 100.1 329.1 101.2C329.4 102.3 329.2 103.5 329.1 106.4C329 109.3 328.3 123.7 328.3 123.7C328.3 123.7 326.5 129.4 320.1 125.8Z" fill="#EDECEB"/>
<path d="M317.4 103.3C317.4 103.3 320.1 106.4 320.4 107.3C320.7 108.2 320.8 110.9 320.8 110.9" stroke="black" stroke-width="0.2941" stroke-miterlimit="10" stroke-linecap="round"/>
<path d="M311 94.2C311 94.2 315.6 95 317 95.6C318.4 96.2 322.6 100.1 323 100.9C323.4 101.7 325.1 106.4 325.1 106.4" stroke="black" stroke-width="0.2941" stroke-miterlimit="10" stroke-linecap="round"/>
<path d="M311.3 91.2C311.3 91.2 316.6 91.4 317.3 91.7C318.1 92.1 322.6 93.8 323.8 95.2C325.1 96.6 327.4 99.8 327.4 99.8" stroke="black" stroke-width="0.2941" stroke-miterlimit="10" stroke-linecap="round"/>
<path d="M328.5 123.9C328.5 123.9 335.9 162.1 330.9 189.7C325.9 217.3 311.9 229.7 303.1 229.3C294.3 228.9 284.4 214.1 292.7 190.8C297 178.7 320.2 125.8 320.2 125.8C320.2 125.8 324.7 122.3 328.5 123.9Z" fill="#EDECEB"/>
<path d="M183 300.9C183 300.9 163.8 317.1 159.6 323.7C155.4 330.3 149.3 338.1 149.3 338.1H195L183 300.9Z" fill="#C42622"/>
</g>
<defs>
<clipPath id="clip0_74_16487">
<rect width="504" height="338" fill="white"/>
</clipPath>
</defs>
</svg>
